<?xml version="1.0" encoding="utf-8"?>
<!-- Generator: Adobe Illustrator 26.0.3, SVG Export Plug-In . SVG Version: 6.00 Build 0)  -->
<svg version="1.1" id="Слой_1" xmlns="http://www.w3.org/2000/svg" xmlns:xlink="http://www.w3.org/1999/xlink" x="0px" y="0px"
	 viewBox="0 0 460.6 300" style="enable-background:new 0 0 460.6 300;" xml:space="preserve">
<style type="text/css">
	.st0{fill:#ADE7C4;fill-opacity:0;}
	.st1{fill:#ADE7C4;stroke:#FFFFFF;stroke-width:0.8635;stroke-linejoin:round;stroke-miterlimit:1.8276;}
	.st2{fill:#ADE7C4;stroke:#FFFFFF;stroke-width:0.8635;stroke-miterlimit:10;}
</style>
<rect x="-921.1" y="-599.9" class="st0" width="2302.8" height="1499.8"/>
<path class="st1" d="M283.1,270.8l0.8-0.5l0.4-0.8l0.1-0.5l0.1-1.3l0.1-0.5l0.2-0.3l3.2-3l0.2-0.4l0.2-0.4l0.1-0.4l0.1-0.4l0.3-0.7
	l0.4-0.7l0.2-0.3l0.2-0.1l1-0.2l0.3-0.1l1.5-0.8l2.9-2.4l0.4-0.4l0-0.2l0.2-0.8l0.3-1.7l0.1-0.5l0.2-0.5l0.1-0.2l1-0.8l0.5-0.5
	l0.3-0.5l0.2-0.5l1.1-0.3l0.4-0.2l0.3-0.2l0.5-0.5l0.3-0.4l1.6-3.1l0.1-0.1l0.2-0.2l0.2-0.2l0.4-0.2l0.4-0.1h0.4l0.4,0l0.4,0.1
	l0.2,0.1l0.1,0.1l0.1,0.1l0.5,0.5l0.1,0.1l0.2,0l0.1-0.1l0-0.1v-0.6l0-0.3l0.1-0.3l0.3-0.4l0.1-0.3l0.1-0.3v-0.2l0-0.2l0-0.4
	l-0.1-0.1v-0.2l0-0.2v-0.2l0-0.2v-0.2l0-0.2l0-0.2v-0.2l0-0.2l0-0.1l-0.6-1.1l-0.1-1.2l-0.2-0.8v-0.3l0.1-0.2l0.1-0.3l0.2-0.2
	l0.1-0.1l0.2-0.1l0.3-0.1l0.4-0.1l1.9-0.1l0.5-0.2l0.4-0.3l0.5,0.5l3.4,0.6l0.7,0l2-0.7l0.4-0.2l0.4-0.1h0.4l0.4,0.2l0.2,0.1
	l0.4,0.4l0.4,0.1l0.5-0.2l0.5-0.3l0.2,0h0.2h0.2l0.2,0l0.4,0.5l0.9,2l0.8,1.1l0.3,0.7l0,0.7l-0.2,0.6l-0.3,0.5l-0.4,0.4l-0.5,0.2
	l-0.6,0.1h-0.5l-0.3,0.2l-0.1,0.7l0,0.4l0.2,0.3l0.1,0.3v0.4l-0.1,0.2l-0.7,0.5l-0.2,0.5l0,0.6l0.4,1.3l0,0.7l-0.1,2l0.1,0.7
	l0.2,0.5l0.6,1l0.2,0.5l0,1.1l0.1,0.5l0.2,0.5l1.1,1l1,1.8l0.5,0.5l1.4,0.8l2.1,1.9l0.6,1l0.1,1.3l-0.4,2l-0.6,1.9l-1.1,1.6
	l-0.3,0.6l-0.2,0.5l-0.1,0.5l-0.2,0.4l-0.4,0.3l-0.4,0.1l-1.2,0.2l-0.8,0.3l-0.5,0.5l-1.1,3.4l-0.8,1.6l-1.9,2.7l-1.5,1.4l-1.4,1.7
	l-1.1,2l-0.8,2.1l-0.1,1.4l0.5,2.6l0.1,1.4l-0.1,1.2l-0.3,1.1l-0.5,1l-0.1,0.5l-0.1-0.6l-0.3-0.5l-0.5-0.3l-0.5-0.1l-1,0l-0.4,0
	l-0.3-0.2l-0.6-0.4l-0.3-0.1l-0.3,0l-0.5,0.1l-0.3,0l-0.2,0.1l-0.1,0.3l-0.2,0.3l-0.3,0.1l-0.5-0.4l-0.5-1.4l-0.6-0.3l-0.5,0.2
	l-0.5,0.4l-0.9,0.9l-0.5,0.4l-0.5,0.3l-0.6,0.1l-0.6,0.1l-0.7,0.1l-1,0.6l-0.6,0.1l-0.6-0.2l-0.3-0.5l-0.2-0.6l-0.2-0.6l-0.5-0.5
	l-1.2-0.5l-0.5-0.4l-0.2-0.5l-0.5-1.5l-0.3-0.3l-0.5-0.2l-1.1-0.7l-0.5-0.3h-1.3l-2.4,0.5l-3.5,0.2l-0.3,0.1l-0.5,0.5l-0.3,0.1h-0.7
	l-0.3-0.1l-1.7-0.7l-0.6-0.1l-0.7,0.1L280,291l-0.7-0.5l0-0.6l0.4-0.6l0.5-0.5l0.4-0.7l-0.1-0.5l-0.4-0.5l-0.5-0.5l-0.4-0.9l0.1-1.2
	l0.5-2.2l0.1-1.3l-0.2-2.7l0.1-1.3l0.9-1.6l1.5-1.9l1-1.9L283.1,270.8z"/>
<path class="st1" d="M355.5,155.9l-1,0.5l-1.3,1.2l-0.9,1.1l-0.8-0.2l-0.3-0.6l0.1-0.3v-0.1l-0.5,0.4l-0.6-0.7l-0.2-0.4l0-0.4
	l-0.5,0.2l-0.1,0l0.7-1.7l0.2-1.1l1.4-1.4l0.9,0l0.6,0.5l0.8,0.1l1,0.6l0.1,0.6l-0.4,0.7l0.4,0.2l0.3,0.4l-0.2,0.3L355.5,155.9z"/>
<path class="st1" d="M326.4,178.2l-0.1,1.4L326,180l-1.5,0.3l-0.4,0l-0.1,0.1l-0.1,0.1l0,0.2l0,0.8l-0.2,1.3l0.1,0.2l0.1,0.1
	l0.4-0.1l0.5-0.1h0.2l0.1,0.4l-3.2,7.2l-0.1,0.5l-0.1,0.5l0.1,1l0.1,0.3l0.1,0.3l0.1,0.1l0.7,0.1l6,0.1l8-2h0.1l0,0l-0.1,0.3
	l-0.1,0.2l-0.1,0.2l-0.1,0.2l-0.4,1.3l-0.1,0.2l-0.1,0.3l0.3,0.6v0l-1.1,0.3l-0.5,0.4l0.7,0.7l1.2,0.8l0.9,0.4l0.3,0l-1.1,1.5
	l-0.4,0.7l-0.1,0.4v0.3v0.2l0,0.2l0.1,0.3l0.2,0.4l0.2,0.6l0.1,0.3l0,0.2v0.3l0,1.1l-0.1,0.2h-0.1l0-0.1l-0.1-0.1l-0.1,0l-0.1,0
	l-0.2,0.1l0,0.1l0.1,0.1l0.1,0.1l0.5,0.3l0.1,0.1l0,0.1l0,0.2l0,0.2l-0.1,0.3l0,0.5l0,0.3h-0.1l-0.3,0l-0.3,0.8l-0.3,5.6l-0.1,0.8
	l-0.4,0.7l-0.6,0.6l-1.1,0.7l-0.4,0.5l0.3,0.7l-0.5,0.2l-1.6,0.5l-1.3,0.1l-1.3-0.1l-2.1-0.8l-4-0.1l-9.1-2.4l-1.2,0l-1,0.3
	l-2.5,1.8l-2.1,0.3l-0.5,0.5l0.2,1.5l-0.1,0.1l-0.1,0.1l-0.1,0l-0.1,0l-0.7-0.1l-0.4,0l-2-1.8l-1.1-1l-0.4-0.5l-0.3-0.6l0-2.4
	l0.1-0.3l0.2-0.3l0.3-0.1h0.8l0.2,0l0.2-0.1l0.1-0.2l0-0.2v-0.4v-0.2l0-0.3l0-0.2l0-0.2V210v-0.5l0.1-0.2l0-0.2l0.2-0.2l0.4-0.3
	l0.9-0.5l0.5-0.2l0.7-0.2h0.2l0.4-0.1l0.1-0.3l-0.7-3.2l-0.5-0.7l-4.6-0.9l-0.6,0l-0.3,0.1l-0.2,0l-0.2-0.1l-0.5-0.3h-0.2l-0.2,0
	l-0.4,0l-0.3,0l-2.1-0.6l-0.3-0.5l-0.1,0h-0.1l-0.4,0.1l-0.9-1l0-0.2v-0.3l0.1-0.2l0-0.5l-0.1-0.2l-0.2-0.1h-0.2h-0.2l-0.1,0
	l-0.5,0.2l-0.1,0l-0.2,0h-0.2l-0.3-0.1l-0.1-0.1l-0.1-0.2l-0.1-1.6l0-0.2l0-0.2l0.1-0.1l0.5-0.1l0.1-0.1l0.1-0.1l0.1-0.3l0-0.8
	l-0.7-0.9l-0.1-0.3v-0.3l0.1-0.2v-0.3l-0.1-0.1l-0.1-0.1l-0.5-0.2l-0.2-0.2l-0.1-0.2l-0.1-0.1l-0.4-1.8l0-0.6l0-1.6v-0.2l0-0.2
	l0-0.2l0.2-0.5l0.1-0.5l0-0.5l0-0.4l-0.1-0.3l-0.2-0.5l-0.1-0.2l-0.1-0.1l-0.2,0l-0.7,0.1l-0.6,0l-0.5-0.1l-0.4-0.1l-1.1-0.3
	l-3.3-0.1l-0.2-0.2l4.1-7.9l0.7-1.9l-0.6-1.1l-0.2-0.6l0-0.2v-0.6l0.1-0.6v-0.3v-0.3l-0.1-0.1l-0.1-0.1l-0.1-0.1l-2.4-0.6l-0.4-0.2
	l-0.2-0.1l-0.2-0.3l-0.1-0.3l-0.1-0.1l0-0.2l-0.4-4.9l0.3-0.4l0.2-0.5l3.2-1.3V161l1.5,0.4l3.1-0.2l2.6-0.2l6.7-0.4l3.4-0.2l5.6-0.4
	l3.4-0.2l0.6,0.2l1.1,0.6l0.6,0.2l0.5-0.1l0.8-0.5l0.8-0.5l0.6-0.5l0.2,0.5l0.1,0.5l0.1,0.1l0.2,0.4l0.6,0.8l0.6,0.8l0.3,0.6
	l0.1,0.7l0.1,0.6l0.2,0.3l0.2,0.3l0.3-0.3l0.3-0.1l0.3,0l0.3,0.4l0.4-0.8l0.5,0l0.1,0.7v0.1l0,0.3l0.3,0.1l0,0l-0.6,0.5l-0.2,0.1
	l0.2,0.1l0.1,0.2l0.2,0.4v1l-0.1,0.6l-0.1,0.6l-0.2,0.5l-0.2,0.6l-0.4,0.9l-0.3,0.5l-0.4,0.5l-0.5,0.3l-0.9,0.5l-0.3,0.2l0,0.3
	l0.1,0.1l1.1,0.2l0.8,0.5l2.4,2.4l0.9,0.7l0.9,0.7L326.4,178.2z"/>
<path class="st1" d="M302.2,225.8l-0.2,0.2l-0.1,0.1l0,0.2l0,0.5l0.2,1.4l0.7,0.7l3.2,1.1l2.1,0.1l1.1,0.4l0.1,0.1l0.2,0.4l0.1,0.1
	l0.2,0l0.5-0.1l0.2,0l0.2,0.4l0,0.5l-0.3,2.7l0.1,0.9h0l-0.4,0.3l-0.5,0.2l-1.9,0.1l-0.4,0.1l-0.3,0.1l-0.2,0.1l-0.1,0.1l-0.2,0.2
	l-0.1,0.3l-0.1,0.2v0.3l0.2,0.8l0.1,1.2l0.6,1.1l0,0.1l0,0.2v0.2l0,0.2l0,0.2v0.2l0,0.2v0.2l0,0.2v0.2l0.1,0.1l0,0.4l0,0.2v0.2
	l-0.1,0.3l-0.1,0.3l-0.3,0.4l-0.1,0.3l0,0.3v0.6l0,0.1l-0.1,0.1l-0.2,0l-0.1-0.1l-0.5-0.5l-0.1-0.1l-0.1-0.1l-0.2-0.1l-0.4-0.1
	l-0.4,0h-0.4L304,245l-0.4,0.2l-0.2,0.2l-0.2,0.2l-0.1,0.1l-1.6,3.1l-0.3,0.4l-0.5,0.5l-0.3,0.2l-0.4,0.2l-1.1,0.3l-0.2,0.5
	l-0.3,0.5l-0.5,0.5l-1,0.8l-0.1,0.2l-0.2,0.5l-0.1,0.5l-0.3,1.7l-0.2,0.8l0,0.2l-0.4,0.4l-2.9,2.4l-1.5,0.8l-0.3,0.1l-1,0.2
	l-0.2,0.1l-0.2,0.3l-0.4,0.7l-0.3,0.7l-0.1,0.4l-0.1,0.4l-0.2,0.4l-0.2,0.4l-3.2,3l-0.2,0.3l-0.1,0.5l-0.1,1.3l-0.1,0.5l-0.4,0.8
	l-0.8,0.5l-0.3-0.9l-0.9-0.6l-1-0.5l-1.1-0.3h-2l-0.8-0.2l-2.7-1.3l-1.2-1.6l-0.8-0.8l-0.9-0.4l-1.7-0.5l-1.6-1.3l-0.7-0.4l-1.8-0.3
	l-2.7-1.3l-0.9-0.1l-0.7,0.3l-1.3,1l-0.7,0.4l-1.8,0.1l-1.8-0.6l-4.4-3l-2.7-1.8l-3.6-2.4l-2.5-2.3L239,249l-1.8-1.1l-3.9-1.4
	l-3.4-2l-5.6-4.8l-1.5-2l0.4-0.4l2.4-2.7l1.2-0.8l3.7-1.5l1.4-0.5l4.4-1.6l0.1-0.1l0.1-0.1l0-0.3v-0.2l-0.1-0.1l-0.1-0.1l-0.8-1.1
	l-0.2-0.3l-0.1-0.3l0-0.1l0-0.2v-0.2l0-0.2l0.2-0.3l0.2-0.4l2-2.2l0.2-0.1l0.2-0.1l0.3,0l0.3,0l0.3-0.1l0.3-0.3l2.7-2.7l1.2-1
	l2.7-0.6l0.5-0.3l11.3,0.3l0.3-0.1l0.5-0.3l0.6-0.4l0.1-0.1l0.1-0.1l0-0.2v-0.2v-0.5V217l0-0.2l0.2-0.1l0.3,0h0.8l0.2,0l0.2,0
	l0.1,0.1l0.1,0.1l0.1,0.1l0,0.1l0.3,1.1l0,0.2l0.2,0.3l0.3,0.4l1.4,1.4l0.8,0.5l0.6,0.5l0.1,0.2l0.1,0.2v0.5l0,0.5v0.2l0,0.3l0,0.4
	l0.1,0.2l0.1,0.1l1.8,0.5h1l0.4-0.1l0.5-0.4l2.6-1.2l0.1,0l3.8-0.9l0.5,0l0.6,0.5l1.6,1.2l0.4,0.2l0.4,0.1h0.2l2-0.8l0.2-0.2
	l0.9-1.3l0.2-0.2l0.2-0.2l0.4-0.2l0.5-0.1h0.4l2.1,0.3l2.3,0.5l0.5,0.1l0.5,1l0.1,0.5l-0.2,0.9l0,0.5l0,0.3l0.1,0.2l0.2,0.1l0.2,0.1
	l0.2,0.1l0.4,0l2.9-0.1l0.3-0.1l0.1,0l0.1-0.1l0.1-0.1l0.1-0.2v-0.2v-0.1l0-0.4v-0.2l1.4,0.1L302.2,225.8z"/>
<path class="st1" d="M336.3,206.6l0-0.3l0-0.5l0.1-0.3l0-0.2l0-0.2l0-0.1l-0.1-0.1l-0.5-0.3l-0.1-0.1l-0.1-0.1l0-0.1l0.2-0.1l0.1,0
	l0.1,0l0.1,0.1l0,0.1h0.1l0.1-0.2l0-1.1v-0.3l0-0.2l-0.1-0.3l-0.2-0.6l-0.2-0.4l-0.1-0.3l0-0.2v-0.2v-0.3l0.1-0.4l0.4-0.7l1.1-1.5
	l6.2-1.2l1.2,0.9l0.2,0.5l0,0.5v0.5l-0.2,0.4l-0.6,0.1l-2-0.3l-0.5,0.1l-1,0.8l-0.4,0.1l-0.6-1.1l-0.4-0.3l-0.3,0.6l0,0.3l0.5,0.4
	l0.1,0.3l0,0.7l0,0.3l0.1,0.4l2.3,3.2l0.1,0.8l-1.1,0.5l-0.6-1l-0.4-1.5l-0.5-1.2l-0.5-0.4l-0.2,0.3l0.1,0.6l0.3,0.8l0.6,1.2l0,0.5
	l-0.3,0.7l-0.1,0l-0.3,0l-0.1,0l-0.2,0.5v0.2l0,0.3l-0.2,0.2l-0.4-0.2l-0.7-1.1l-0.5-0.4l-0.9,0.8L336.3,206.6z M347.8,193.8
	l-0.9-0.5l-0.6-0.1L342,194l-0.5,0.2l-0.9,0.5l-0.6,0.1l-1.5-0.3l-0.6,0l-1.5,0.4v0l-0.3-0.6l0.1-0.3l0.1-0.2l0.4-1.3l0.1-0.2
	l0.1-0.2l0.1-0.2l0.1-0.3l0,0h-0.1l-8,2l-6-0.1l-0.7-0.1l-0.1-0.1l-0.1-0.3l-0.1-0.3l-0.1-1l0.1-0.5l0.1-0.5l3.2-7.2l-0.1-0.4h-0.2
	l-0.5,0.1l-0.4,0.1l-0.1-0.1l-0.1-0.2l0.2-1.3l0-0.8l0-0.2l0.1-0.1l0.1-0.1l0.4,0l1.5-0.3l0.3-0.4l0.1-1.4l2.1,1.1l3.1,1.6l0.1-0.2
	l0.3-0.3h0.4l0.2-0.2l0.2-0.3l0.2-0.1l0.3,0l1.1,0.5l0.7,0.1l0.6-0.4l0.1-0.5l-0.5-0.3l0.6-1.1l0-0.2l-0.2-0.4l-0.1-0.4l-0.1-0.5
	l0-0.5l-0.7-0.1l-0.2-0.1l-0.2-0.3l-0.2-0.7l-0.1-1.5l-0.1-1.5l0-0.3l0-0.3l0.2-0.2l0.1-0.1l0.2-0.4l0-0.4l-0.1-0.8l0-0.4l0.1,0
	l0.3,0.1l0.1,0.1l0.3-0.8l0.7-0.5l0.5-0.3l1.4,1.2l0.2,0.3l0.1,0.4l0,0.8l0.1,0.3l0.1,0.1l0.2-0.2h0.1l0.1,0.2l0.1,0.6l0.4-0.2
	l0.6,0.1l0.6,0.2l0.4,0.3l0.2,0.3l0.3,0.6l0.2,0.2l0.2,0.1l0.7,0.4l0.3,0.2l0.1,0.2l0.3,0.6v0.1l0,0.4l0,0.2l0.2,0.1l0.2,0l0.2,0
	l0.2,0l0.4,0.4l0.3,0.4l0.1,0.5l-0.4,0.5l0.4,0.3l0.4-0.1l0.4-0.2l0.4-0.1l0.3,0.1l-0.1,0.4l-0.4,0.7l1.1-0.2l0.5,0l0.3,0.9l0.5,0.4
	l0.1,0.3l-0.1,0.3l-0.4,0.4v0.3l0.2,0.1l0.3-0.2l0.3-0.3l0.3-0.1l0.2,0.1l0.2,0.2v0.2l-0.7,0.3l-0.2,0.5l-0.3,1.2l0.3,0l0.3,0
	l0.3,0.1l0.2,0.2l-0.5,0.3l0,0.3l0.3,0.3l0.2,0.2l0,0.3l0.1,0.3l0,0.3l-0.1,0.3l-0.4,0.5l-0.1,0.3l-0.1,0.3l-0.1,0.3l-0.5,3.2l0.4,1
	l0.2,0.3l0,0.5l-0.4,1.4L347.8,193.8z"/>
<path class="st2" d="M384.9,152.1l-0.3,0.9l-0.2,0.4l-1.3,1.7l0,0.2l0,0.2l0,0.4l0,0.5l0.1,0.2l0.1,0.1l0.7,0.1l0.1,0.3l-0.1,0.5
	l-0.1,0.2l-0.5,1.1l0,0.2v0.3l0.1,0.2l0.1,0.3l0.5,0.7l0.5,0.9l0.1,0.8l0.1,2.6l-0.2,0.8l-0.3-0.4L383,165l-1,0.3l-0.7,3.7l-1.5,1.7
	l-1.9,1.2l-2.7,1.1l-2.5,1.9l-4.9,1.6l-0.6,0.3l-0.5,0.5l-1.1,1.4l-0.6,0.5l-0.7,0.2l-0.8-0.3l-0.4-0.3l-0.3-0.4l-0.5-0.8l-0.3-0.4
	l-0.6-0.5l-0.3-0.3l-1.1-1.6l-0.6-0.6l-0.9-0.1l-0.4-0.2l-0.3-0.4l-0.4-0.3l-0.5,0l-0.9,0.3l-0.4,0.2l-0.4,0.3l-0.6,0.9l-0.4,0.9
	L354,177l0,1.3l0.2,1.9l-0.1,0.5l-0.4,0.2l-1.6,0.1l-1,0.7v0.7l1.1,1.8h0l0.5,2l0.3,0.6l0.7,1.2l0.3,0.7l0.2,0.8l-0.2,1.7l-0.8,0.1
	l-1.1-0.4l-0.7,0.1l0.1,1l1.9,1.7v0.8l-1,0.5l-1.3,0l-2.4-0.7l-0.9-0.5l0.1-0.5l0.4-1.4l0-0.5l-0.2-0.3l-0.4-1l0.5-3.2l0.1-0.3
	l0.1-0.3l0.1-0.3l0.4-0.5l0.1-0.3l0-0.3l-0.1-0.3l0-0.3l-0.2-0.2l-0.3-0.3l0-0.3l0.5-0.3l-0.2-0.2l-0.3-0.1l-0.3,0l-0.3,0l0.3-1.2
	l0.2-0.5l0.7-0.3v-0.2l-0.2-0.2l-0.2-0.1l-0.3,0.1l-0.3,0.3l-0.3,0.2l-0.2-0.1v-0.3l0.4-0.4l0.1-0.3l-0.1-0.3l-0.5-0.4l-0.3-0.9
	l-0.5,0l-1.1,0.2l0.4-0.7l0.1-0.4l-0.3-0.1l-0.4,0.1l-0.4,0.2l-0.4,0.1l-0.4-0.3l0.4-0.5l-0.1-0.5l-0.3-0.4l-0.4-0.4l-0.2,0l-0.2,0
	l-0.2,0l-0.2-0.1l0-0.2l0-0.4V175l-0.3-0.6l-0.1-0.2l-0.3-0.2l-0.7-0.4l-0.2-0.1l-0.2-0.2l-0.3-0.6l-0.2-0.3l-0.4-0.3l-0.6-0.2
	l-0.6-0.1l-0.4,0.2l-0.1-0.6l-0.1-0.2h-0.1l-0.2,0.2l-0.1-0.1l-0.1-0.3l0-0.8l-0.1-0.4l-0.2-0.3l-1.4-1.2l1.1-0.5l0.5-0.6l0.5-1.4
	l0.5-1.4l0.3-0.4l0.4-0.4l0.9-0.4l0.9-0.4l0.7-1.1l0.2-0.2l0.1-0.2l0.5-0.2l1.1-0.1l0.5-0.2l0.5-0.2l0.5-0.3l0.5-0.3l0.5-0.5
	l0.2-0.4l0.2-1.7l0.2-1.6l0-0.6l0-0.4l-0.1-0.1l-0.1-0.1l-0.2-0.3l-0.1-0.3l0.1-0.3l0.2-0.2l1.2-0.6l0.5-0.1l0.5,0.2l0.3-0.7
	l0.7-0.6l0.7-0.5l0.7-0.5l0.5-0.1l0.8,0.3l0.4,0l1.1-0.7l0.4-0.1l0.8,0.1l0.8,0.1l0.3-0.2l0-0.4l-0.5-0.8l-0.1-0.4l0.2-0.5l0.2-0.5
	l0.7-0.5l1.5-0.5l1.4-1.1l1.3-1.1l0.4-0.5l0.4-0.4l0.5-0.4l1.8-0.5l1.8-0.5l1.5,0l1.5-0.1l1.1-0.5l0.8-1l0.4-0.5l0.4-0.3l0.7-0.3
	l0.7-0.3l2.2-1.6l0.3-0.4l0.3-0.4l0.9-1.6l0.9-1.6l0.4-0.4l0.5-0.2l0.5-0.2l0.4-0.2l0.4-0.4l0.1-0.3l0.1-0.3l0.6-1.5l0.6-0.5
	l0.5-0.5l2.6-1.1l0.4,0l0.5,0.4l0.4,0.5l0.2,0.5l0.2,0.6l0.4,0.4l0.5,0.2l0.6,0.1l0.4-0.2l0.4-0.2l0.5-1.1l0.3-0.7l0.2-0.6l0.6-1.2
	l0.4-0.4l0.4-0.5l0.3-0.5l0.2-0.6l0.4-0.5h0.6l1.2,0.3l1-0.1l0.5-0.2l0.5-0.3l1.8-1.5l0.6-0.5l1.1-0.9l0.9-0.1l0.8,0.4l3.7,2.7
	l0.9,0.3l-0.4,1.4l-1,0.7l-2.2,0.6l-3.7,2.8l-1.1,0.3l-1.3,0l-1.1,0.3l-0.5,1.3l0,2.1l-0.3,0.6l-0.9,0.4l-2.7,0.3l-0.8,0.5l-2.6,2.2
	l-1.1,1.4l-0.8,1.7l-0.6,1l-0.8,0.5l-0.9,0.5l-1.6,1.2l-4.3,2.6l-0.6,0.9l0.5,1.1l1,0.5l3.7,0.4l0,0l1,0.6l0.5,0.4l0.4,0.5l0.6,1.2
	l0.4,0.4H384.9z M355.5,155.9l-0.3-0.3l0.2-0.3l-0.3-0.4l-0.4-0.2l0.4-0.7l-0.1-0.6l-1-0.6l-0.8-0.1l-0.6-0.5l-0.9,0l-1.4,1.4
	l-0.2,1.1l-0.7,1.7l0.1,0l0.5-0.2l0,0.4l0.2,0.4l0.6,0.7l0.5-0.4v0.1l-0.1,0.3l0.3,0.6l0.8,0.2l0.9-1.1l1.3-1.2L355.5,155.9z"/>
<path class="st1" d="M430.7,166.2l-0.1,0.6l-0.6,2.9l-0.2,0.2l-0.1,0l-0.2,0.1l-0.4,0.1l-1.6,0l-0.5,0.1l-0.5,0l-3.5-0.9l-0.7,0.1
	l-0.6,0h-0.6l-0.3,0.1l-1.1,0.5l-0.9-0.4l-2.7,0.7l-0.4,0.5l-0.3,0.2l-0.9,0.8l-0.1,0.2l0,0.3l0.3,0.4l0.4,0.9l-0.8,0.8l-2.2,0.7
	l-2.3,1.3l-0.5,0.4l-0.8,1.3l-1.7,1.6l-0.6,0.1l-0.4-0.1l-1.2-0.7l-0.5-0.5l-0.3-0.1l-0.5-0.1l-0.3-0.1l-0.2-0.1l-0.8-0.8l-0.2-0.1
	l-1.1-0.1l-0.1-0.2l1.7-2.3l-3,0.1l-0.8-0.1l-0.2-0.2l-0.2-0.1l-0.4-0.2h-0.5l-1.2,1.1l-0.4,0l-0.7-0.1l-0.4,0l-0.4,0.2l-0.3,0.3
	l-0.2,0.3l-0.3,0.4l-0.7,0.4l0-0.3l0.2-1.2l-1-0.6l-2.4-0.6l-0.4-0.5l-0.1-0.6l0.3-0.4l0.5-0.1l0.9,0.8l0.5,0.2l0-0.6l-0.2-0.3
	l-4.8-5.5l-0.8-0.7l-0.1-0.1l0-0.1l-0.5-0.5l0.2-0.8l-0.1-2.6l-0.1-0.8l-0.5-0.9l-0.5-0.7l-0.1-0.3l-0.1-0.2v-0.3l0-0.2l0.5-1.1
	l0.1-0.2l0.1-0.5l-0.1-0.3l-0.7-0.1l-0.1-0.1l-0.1-0.2l0-0.5l0-0.4l0-0.2l0-0.2l1.3-1.7l0.2-0.4l0.3-0.9h0.2l0.9-0.3l3.3-1.9
	l0.9-0.1l0.5,0.3l0.5,0.6l1.5,2.6l0.2,0.7l0,0.7l-0.4,2.2l0,0.6l0.3,0.5l0.4,0l0.5-0.3l0.6,0l0.5,0.2l0.5,0.3l0.5,0.5l0.4,0.5
	l0.5,0.5l0.5,0l1.1-0.1l1.3,0.2l0.6,0.3l0.5,0.4l0.5,0.3l1,0.1l0.4,0.4l0.7,1.1l0.4,0.3l0.3-0.7l0-0.7l-0.1-0.6l0-0.5l0.5-0.3
	l0.6,0.1l0.3,0.4l0.3,1.3l0.2,0.5l0.4,0.4l0.4,0l0.3-0.7l0.6-0.8l1.8,1.6l0.6-0.5l0.1-1.2l-0.2-6.1l0.2-0.5l0.4,0.1l1.3,1.2l1.1,0.5
	l0.9-0.2l0.7-0.8l0.9-1.9l0.4-1.2l0.1-0.7l-0.1-0.6l-0.8-1l-0.3-0.6l0.5-1.3l0.3-0.4l0.6-0.2l0.6,0.1l0.3,0.5l0.1,0.7v0.7l-0.5,2
	l0,0.4l0.2,0.1l0.2-0.3l0.1-0.4l0.1-0.2l0.3,0.1l0.1,0.5l0.3,0.1l0.2-0.2l0-0.8l0.2-0.1l0.2,0.1l0.2,0.2l2.5,3.7l0.4,1.1l0.1,1.2
	l0,1.5l0.1,1.5l0.7,0.3l2.1-0.4l0.6,0.5l0.4,0.6l0.5,0.2l0.8-0.5l0.6-0.5l0.6-0.4l0.6-0.1l0.7,0.4l0.3,0.7l0.1,1l0,1l0.2,1.8v0.7
	l-0.2,0.6l-0.4,0.9L430.7,166.2z M389.5,168.1l-0.3-0.9l-0.4-0.6l-0.6-0.5l-0.7-0.3l-0.4,0.1l0.3,0.7l0.5,0.5l0.8,1.1l0.5,0.4
	l0.5,0.1L389.5,168.1z"/>
<path class="st1" d="M419,204.7l-0.4,0.1l-0.6-0.2l-0.5-0.2l-0.5-0.4l-0.3-0.5l0.5-0.5h0.6l0.5-0.2l1-0.7l0.7-0.2l0.1,0.4l-0.6,2.2
	L419,204.7z M403.4,199.9l0.2,0l0.1-0.1l0.3-0.2l0.2-0.1l0.6-0.2l0.4,0.1l0.2,0.3l-0.2,0.5l-1.2,0.9l-0.4,0.4l0,0.9l1.2,1.2l0,1.1
	l-0.3,0.4l-0.4,0.1h-0.9l-1.3,0.4l-0.4,0l-0.3-0.3l0-0.4l-0.1-0.3l-0.5,0l-0.3,0.2l-0.4,0.4l-0.4,0.2l-0.3-0.2l0-0.9l1.1-1.8
	l-0.1-1.1l-0.3-0.2l-0.7-0.1l-0.4-0.2l-0.3-0.5l-0.7-1.4l-0.1-0.6l0-0.5l0.1-0.6l0.5-1.1l0.8-0.5l0.6,0.4l0.5,0.8l0.4,1l0.5,0.6
	l0.7,0.5l1.5,0.6l0.1,0.1L403.4,199.9z M414.4,174.4l0.8,1.2l0.5,1.1l0.3,0.4l0.1,0l0-0.6l0.1-0.1h0.3l0.7,0.4l0.4,0.1l0.2,0
	l0.1-0.1l0.3,0l0.4,0l1.4,0.5l0.3,0.2l0.2,0.2l0.2,0.4l1.1,1.5l0.2,0.1l0.2,0.1l0.6,0.1l0.5-0.1l0.7,0l1.3,0.4l1.6,0.3l0.5,0
	l0.3-0.4l0.3-0.2l0.4,0.3l0.5,0.8l0.2,0.1l0.3,0l1.4,0.4l0.4,0.3l0,0.2v0.2v0.4l-0.1,0.6l-0.1,0.6l0,0.5l0.2,0.8l0,0.2l-1.2,0
	l-0.5,0.1l-1.8,1l-0.2,0.4l-0.2,0.6l-0.4,1l-0.7,0.7l-2.3,1.1l-0.1,0.5l0.2,0.5l0.5,0.3l0.8,0.4l0.4,0.3l0.1,0.3L426,193l-0.4,0.1
	l-0.4,0l-0.3-0.1l-0.2,0h-0.2l-0.3,0.1l-1-0.1l-1.1-0.2l-1,0l-0.8,0.8l-0.5,1.1l-0.3,0.5l-0.4,0.4l-1.4,0.8l-0.4,0.1l-0.5-0.2
	l-0.1-0.5v-1.4l-0.2-0.7l-0.4-0.8l-0.5-0.4l-0.5,0.4l-0.2,0.7l0,0.6l-0.2,0.4l-0.6,0l-1.3-0.2l-0.6-0.3l-0.5-0.3l-0.5-0.5l-0.2-0.5
	l-0.2-0.4l-1.2-0.4l-0.8-0.8l-0.5,0l-0.8,0.1l-0.5,0l-0.4-0.2l-0.3-0.3l-0.2-0.4l-0.3-0.2l-0.4,0.1l-0.5,0.6l-0.2,0.8l-0.4,0.6
	l-0.8,0.1l-3.1-0.5l-1.6,0.3l-1,1l-0.5,0l-2.3,0.2l-3.8,1.1l-1.1,0.1l-1.1,0l-1.1-0.8l-0.5-1.5l-0.4-1.6l-0.7-1.1l-0.6-0.2l-0.5,0
	l-0.5,0.1l-0.6,0l-0.5-0.1l-1.3-0.6l0.4-1.2l-0.1-0.1l-0.2-0.3l0,0l-0.3-0.5l0-0.1l0-0.2l0-0.7l0.4-0.7l0.8-0.5l1.8-0.4l0.3-0.1
	l0.3-0.3l0.6-1.1l0.4-0.4l0.4-0.2l0.4-0.1l0.4-0.2l0.3-0.3l1-1.1l1.6-1.3l0.4-0.4l0.4-0.3l0.2-0.1l0.5-0.1l0.1-0.1l0-0.2l0.1-0.1
	l0.4-0.3l0.7-0.4l0.3-0.4l0.2-0.3l0.3-0.3l0.4-0.2l0.4,0l0.7,0.1l0.4,0l1.2-1.1h0.5l0.4,0.2l0.2,0.1l0.2,0.2l0.8,0.1l3-0.1l-1.7,2.3
	l0.1,0.2l1.1,0.1l0.2,0.1l0.8,0.8l0.2,0.1l0.3,0.1l0.5,0.1l0.3,0.1l0.5,0.5l1.2,0.7l0.4,0.1l0.6-0.1l1.7-1.6l0.8-1.3l0.5-0.4
	l2.3-1.3L414.4,174.4z"/>
<path class="st1" d="M160.7,77.4l2.9,4.9l1.3,1.2l7.2,2l0.4,0.2v0.4l-0.2,0.5l-7.2,13.7l-6.8,13.1l-1.5,3.4l-0.6,7.4v0.4l0.1,0.4
	l3,5.6l0.5,1.1l-0.1,0.2l-0.3,0.3l-5.7,3.2l-0.5,0.5v0.5l0.2,0.5l11.4,15.7l7.5,10.5v0.5l-6,2.9l-1.4,0.5l-0.4-0.1l-0.4-0.2
	l-0.1-0.1l-3.2-5.1l-4.5-5l-1.6-1.2l-1.2-0.7l-1.3-0.5l-5.1-1.2h-1.4l-0.5,0.1l-0.5,0.2l-0.4,0.3l-0.5,0.5l-1.1,2.1l-0.5,0.4l-0.7,0
	l-0.6-0.2l-0.2-0.1l-0.4-0.2l-0.3-1.1l-0.3-0.5l-1.4-1.6l-0.5-0.3l-1.6-0.3l-0.6-0.2l-0.8-0.8l-1-1.1l-0.3-0.2l-0.4-0.1l-0.7-0.1
	l-6.3-5.7l-0.9-1l-0.7-1.2l-0.5-1.4l-0.3-0.6l-0.5-0.3h-1.2l-0.6-0.1l-0.5-0.3l-0.4-0.5l-0.7-1.3l-0.3-0.9l-0.7-1.1l-0.2-0.6v-1.6
	l-0.1-0.7l-0.4-0.3l-1.3-0.1l-1.3-0.3l-0.3-0.2l-0.5-0.4l-0.5,0l-0.1,0.1l-0.5,0.5l-1.4,1l-0.5,0.2l-0.7,0l-0.4,0.1l-0.2,0.1
	l-0.1,0.1l0,0.2l0.1,0.1l0.3,0.6l0,0.4l-0.3,0.8l-0.3,0.3l-0.6-0.9l-0.8-0.7l-2.8-1.1l-1.4,0l-0.4-0.2l-0.3-0.5l0-0.5l0.3-0.4
	l0.5-0.1h0l1.6-0.6l-0.1-1.4l-0.5-1.8l0.2-1.6l0.5-0.3l0.5-0.2l0.4-0.3l0.1-0.6l-0.3-0.5l-0.6-0.4l-1.2-0.5l-1-0.9l-0.7-1.1
	l-0.8-0.9l-1.2-0.1l-1.2,0.1l-2.3-0.2l-5.6,0.9l-1.4,0l-0.6-0.2l-1.1-1.1l-0.6-0.2l-1.4-0.1l-0.7-0.5l-0.4-0.6l-0.3-2.7l-0.2-0.7
	l-0.4-0.6l-1.7-1.8l-0.6-0.4l-0.6,0.1l-0.8,0.4l-0.8,0.2l-0.8,0l-1.2-0.2l-1.9-0.8l-1.8-1.7l-5.7-6.7l-0.6-0.4l-0.5,0.8l-0.4,3.1
	l-0.5,1.1l-1.1,0.4l-1.4-0.1l-1.4-0.3l-2.8-1.2h-0.7l-0.5,0.1l-1.4,0.9l-1,0.5l-0.5,0.4l-0.2,0.5l0.1,0.7l0.5,0.4l3.3,1.6l0.9,0.7
	l0.8,1.2l0.7,1.7l2,3.2l1.1,1.3l0.3,0.3l0.1,0.3l-0.1,0.3l-0.3,0.2l-1.7,0.3l-0.5-0.1l-0.3-0.5v-0.5l0.1-0.6l0.1-0.6l-0.3-1.3
	l-0.7-0.9l-0.9-0.7l-2.6-1.2l-0.6-0.1l-0.5,0.1l-1,0.4l-0.4,0l-0.5-0.2l-0.6-0.9l-0.4-0.4l-0.5-0.2l-0.6,0l-0.6,0.1l-0.5,0.2
	l-0.3,0.3l-0.2,0.5l-0.7,0.8l-0.7,0.3l-0.5,0.4l0.2,1l0.5,1.2l0,0.5l-0.2,0.9l-1.1,2.5l-0.4,0.4l-1,0.4l-0.2,0.5l0.2,0.5l0.4,0.4
	l0,0.3l-0.5,0.4l-0.5,0.1l-1.8-0.1l-0.5,0.1l-1.5,0.7l-0.6,0.1l-0.2-1.5l-0.2-0.9l-0.4-0.7l-0.5-0.6l-0.6-0.5l-1.4-0.8l-1.1-0.1
	l-0.3-0.1l-0.3-0.2l-0.4-0.3l-0.5-0.9l-0.3-0.3l-0.5-0.1l-0.7,0l-1.5,0.5l-1.1,0.6l-0.7,0.6l-0.3,0.3l-0.8,1.7l-3.3,10.5l-0.1,0.5
	v0.2l-2.4,1.1l-0.8,1.1v1.4l0.6,2.8l-0.1,1.4l-0.2,1.1l0,1.1l0.5,1.3l0.6,1l0.3,1l0.1,1v1.2l0.1,1l0.3,1l0.5,0.9l0.5,0.6l0.4,0.3
	l0.4,0.2l1.4,0.3l0.2,0.2l0,0.2l-0.3,0.4l-0.5,0.4l-1.2,0.6l-0.5,0.6l-0.8,1.5l-0.5,0.3l-3.2-0.7l-2.5-0.5l-5.9-0.4l-6.4-0.3
	l-4.9-0.3l-4.3-0.2l0-16.3v-8.2v-8.2v-8.2v-8.3v-8.3v-8.4v-8.4v-8.4L0,64v-8.5V47v-8.5v-8.6v-8.6l0.1,0l2.5-0.8L5,19.7l2.5-0.8
	l5-1.6l2.5-0.8l2.5-0.8l2.5-0.8l5-1.6l2.5-0.8l2.5-0.8l2.5-0.8l2.5-0.8l5-1.6l3.3-1.1l3.3-1l3.3-1l3.3-1.1l1.5-0.5l1.6-0.5l3.1-0.9
	L60.9,2l3.2-0.9l1.6-0.5L67.9,0l0.6,0l0.7,0.3l0.2,0.2l0,0L69,1.7l-0.1,0.7l-0.1,0.4l-0.4,0.8L68.3,4v1.1l-0.1,0.3l-0.1,0.1
	l-0.2,0.1l-0.1,0.1l-0.1,0.1l-0.2,0.7l-1,1.3L66.4,8l0,0.1l-0.3,0.3l-1.2,1.7l-0.1,0.3l0,0.3l-0.1,1l-0.3,1l-0.4,0.8L63.7,14
	l-0.1,1.2l-0.1,0.6l-0.2,0.6L63,17l-0.2,0.2l-0.4,0.4l-0.2,0.2l-0.1,0.3l0,0.3L62,18.9l-0.1,0.5l-1.8,4.3l-0.2,1.7l-0.1,1.1l0,1.1
	l0.5,1.6l0.5,1.4l0.7,1.2l0.5,1.6l0,0.9L61.9,35l-0.2,0.5l-0.5,0.4l-0.6,0.9l-0.1,0.6l-0.2,0.4L60,38.1l0,0.3l0.2,1.4l0.5,1.5
	l0.7,0.6l0.5,0.5l1.1,0.2l1.3-0.1l1.3-0.7l1.4-1.1l1.2-1.1l0.8-1l0.4-0.6l0.3-0.6l0.5-0.6l0.6-0.9l0.6-1l0.5-0.7l0.5-0.6l0.1-0.5
	L72,32.3l-0.5-0.2l-0.6-0.3l0.4,0.9l-0.5,0.1l-0.6-0.2l-0.3-0.5l0.3-1.4l0.3-0.6l0.2-0.5l0.5-0.2l0.4-0.2l0.5,0.2l0.1,0.7l0.1,0.5
	l0.4,0.4l0.5,0.1l0.9-0.2l0.5-0.5l-0.1-0.7l-0.6-0.5l-0.3-0.5l0.3-1l0-1.2l-0.3-1.2l-0.2-1.1v-0.8l0.5-0.1l0.7-0.1l0.4-0.8l0.1-0.9
	l0.2-0.7l0.2-1.1l-0.6-0.4l-0.6,0.5l-0.5,0.9l-1,0.6l-0.6,0.1l-0.7,0.5l-0.8-0.5l0-0.9l0.3-0.9l0.5-1.1l0.4-0.9l0.8-0.9l0.4-0.8
	l0.7-0.7l0.8-0.8l0.6-0.3L74,13.1l-0.7-0.9l-0.6-2.3l-0.2-1.5l-0.1-1l0.1-1.1l0.4-1.3l0.4-1.1l0.2-0.5L76.1,5l3.4,2.3l2.3,1.6
	l6.3,4.3l4.1,2.7L92,16l-0.6,0.9L91,17.6l-0.5,1.7l-0.4,1.1l-0.8,1.3l-0.6,0.7l-0.3,1.3l-0.3,1.3l-0.4,1l-0.5,0.8l-0.9,1.2L85.9,29
	l-0.3,0.9l-0.2,0.9l0.3,1.9l0.7,1.6l0.8,1.1l2.2,2.5l3.3,3.3l1.7,1.7l1.4,1l1.4,1.1l0.3,0.3l0.1,0.5l-0.1,1.1L97,47.7l-1.2,0.8
	l-0.4,1.1l-0.5,1.1l-0.6,1.1l0.4,1l1.3,0.2l1.2-0.1l1.1-0.3l0.7-0.6l1-0.1l1.1,0.2l1-0.4L103,51l1.5-1l0.7-0.9l0.1-0.5l-0.4-0.4
	l-0.5,0L104,48l-0.3-0.3l-0.1-0.3V47l0.1-0.3l0.2-0.5l0.3-0.3l0.2-0.3h0.5l0.7,0l0.7,0.1l0.5-0.1l0.4-0.4l0.2-0.5l0.4-1.2l0.2-1.2
	l-0.1-1.2l-0.3-2l-0.5-1.5l-0.6-1.2l-0.2-1.2l0-1l0.5-0.6l0.5-0.4l0.5-0.6l0.4-0.8l0.2-1.1v-1.4l0-1.8v-0.9l0.5,0.4l5.2,3.4l4.8,3.3
	l4.5,2.9l3.8,2.6l5.5,3.7l1.6,1.1l0.7,0.8l0.5,1l0.2,0.9l0.2,1.9l0.3,0.9l1.6,2.5l3,3.3l1.5,1.6l1.5,1.6l1.9,2.1l1.5,1.7l3.1,3.6
	l1.5,1.7l1.5,1.7l1.5,1.7l3,3.4l2,2.3L160.7,77.4L160.7,77.4z"/>
<path class="st1" d="M286.3,161v0.1l-3.2,1.3l-0.2,0.5l-0.3,0.4l0.4,4.9l0,0.2l0.1,0.1l0.1,0.3l0.2,0.3l0.2,0.1l0.4,0.2l2.4,0.6
	l0.1,0.1l0.1,0.1l0.1,0.1v0.3v0.3l-0.1,0.6v0.6l0,0.2l0.2,0.6l0.6,1.1l-0.7,1.9l-4.1,7.9l-0.5-0.5l-0.3-0.4l-0.1-0.1l0-0.1l0-0.1
	v-0.2l0.2-0.5v-0.3l0-0.1l0-0.1l-0.9-1.1l-0.8-0.7l-0.3-0.1l-0.2,0l-0.3,0.1l-1.9,1.3l-0.6,0.3l-0.5,0.1l-0.4-0.1l-0.5-0.2l-0.5-0.3
	l-0.5-0.4l-0.4-0.2l-0.4,0l-0.4,0.1l-0.3,0.3l-0.3,0.3l-0.2,0.4l-0.2,0.5l-0.3,1l-0.1,0.5v0.5l0.2,0.6l0.2,0.3l0.1,0.3l0,0.3
	l-0.2,0.4l-0.2,0.2l-0.5,0.2l-0.1,0.2v0.3l0.3,0.8l0.1,1.2l-0.2,0.8l-0.4,0.8l0,0.2l0,0.2l0.1,0.2l0.4,0.4v0.3l-0.1,0.2l-0.7,1
	l-0.2,0.5l-0.1,0.5l-0.2,0.8l-0.7,1.6l0,0.2l0,0.2l0.1,0h0.2l0.5-0.1h0.2l0.2,0l0.2,0.1l0.1,0.2l0.1,0.2v0.3l-0.1,0.3l-0.3,0.3
	l-1.7,1.6l-0.3,0.2l-5.7,1.2l-1.1-0.2l-1.1-0.7l-0.5,0.2l-0.5-0.3l-0.5-0.4l-1.1-0.4l-0.4-0.5l-0.7-1l-0.3,0l-0.1,0l-0.5-0.1
	l-2.4-1.1h-0.4l-0.2,0.1l-0.1,0.1l-0.1,0.4l-0.1,0.2l0,0.1l0,0.5l-0.1,0.7v0.2l0,0.2l-0.1,0.1l0,0.2l-0.7,1l0,0.2l0.1,0.1h0.2l0.2,0
	l0.1,0.1l0.1,0.1l0,0.2l0,0.2l-0.1,0.3l-0.4,0.9l-0.1,0.2l-0.5,1.8l-0.2,0.4l-0.2,0.1l-0.3,0.1h-0.8l-0.7-0.1l-0.8-0.4l-0.9-0.5
	l-0.2,0l-0.2,0.1l-0.1,0.2l0,0.2l-0.1,0.6l-0.2,0.2l-0.2,0.2l-1.6,0.4l-1.3,0.2l-0.3,0l-0.1,0.1l-0.1,0.1l0,0.2l0.2,0.4l0.8,0.9
	l0.5,0.5l0.2,0.2l0.2,0.3l0.8,2.9l0,0.3l0,0.5l0,0.3l-0.1,0.3l-0.8,1.8v0.2l0.3,1.1l1.4,2.8l-0.5,0.3l-2.7,0.6l0-1l0-0.2l-0.3-0.9
	l-0.1-0.4l-0.1-0.2l-0.4-0.5l-0.5-0.5l-0.4-0.2l-0.6-0.2l-0.5-0.3l-0.2-0.7l-0.1-0.7v-0.6l-0.2-0.8l-0.5-0.8l-3.2-1.5l-0.2-0.4
	l-0.4,0l-1.1,0.5h-0.5l-0.4-0.2l-0.1-0.3l-0.1-0.3l0-0.2l-1.2-0.7l-0.8-0.5l-1.9-2.7l-0.4-0.9l0.4-0.9l0.5-1l0.9-1.1l0.1-0.1
	l0.2-0.2l0.2-0.5l1.6-0.7l0.5-0.4l0.5-0.5l0.4-0.5l1.3-2.6l0.4-0.3l0.3,0l0.2-0.1l0.2-0.1l0.2,0l0.8-0.1l0-0.1l-0.1-0.2l-0.4-0.5
	l-0.8-0.8l-0.3-0.5l0-0.1V193l0.1,0l0.2-0.2l0.5-1.3l-0.7-0.7l-0.1-0.7v-0.3l0-0.4l0.1-0.3l0.2-0.3l0.5-0.3l0.9-0.1h0.6l0.5,0.1
	l0.5,0.5l0.6,0.4l0.6,0.2l3.1,0l0.3-0.6l0.6-1.9l0.5-0.5l0.6-0.7l0.7-2.2l0-0.4l0.3-0.5l0.2-0.2l0.2-0.1l0.3,0l1.4,0.3l0.4,0l0-0.4
	l-0.1-0.4l0-0.7v-0.9l0-0.9l0.1-0.9l0.6-2.2l-1.3,0.4l-8-0.5l-2.7-0.6l-0.9-0.5l-0.9-0.7l-0.4-1.1l-0.2-0.9l-0.6-3.6l-0.2-0.8
	l-0.3,0l-0.8,1.2l-0.9,0.4l-1.1,0.2l-3.5,0.1l-0.9,0.4l-0.5,0.3l-0.8,3.1l-0.6,0.6l-7.2-0.9l-1.1-0.4l-0.4-0.8l0-2.3l-0.1-1.2
	l-0.5-0.8l-0.5-0.5l-0.5-0.1l-0.5,0.2l-0.5,0.5l-0.5,0.7l-1.6,3.3l-1.9,2.8L206,176l0-0.7l-1-1l-0.6-1.1l-8-4.9l-4.1-2.3l-3.5-1.4
	l-2.3-0.5l-0.6-0.4l-3.6-6.4l-4.4-5.3l-0.7-1.1l-0.8-2l-2.2,0l-9.4,3.6l-11.4-15.7l-0.2-0.5v-0.5l0.5-0.5l5.7-3.2l0.3-0.3l0.1-0.2
	l-0.5-1.1l-3-5.6l-0.1-0.4v-0.4l0.6-7.4l1.5-3.4l6.8-13.1l7.2-13.7l0.2-0.5v-0.4l-0.4-0.2l-7.2-2l-1.3-1.2l-2.9-4.9l2.2-0.4l1.9-0.3
	l3.4-0.6l3-0.5l1.5-0.3l2.4-0.4l2.4-0.4l12.1-2L192,72l4.1,0.4l4,0.4l4.1,0.4l4,0.4l3.7,0.3l3.7,0.3l3.7,0.4l3.7,0.3l1.5,0.1
	l0.9-0.3l2.7-1.5l2.6-1.4l2.7-1.5l2.6-1.4l0.5-0.2l0.5-0.2l0.9,0.1l0.4,0.4l0.5,0.4l2.9,3.7l2.8,3.7l1.3,1.4l1.3,1.4l2.7,1.7
	l2.7,1.7l1.1,1l2.2,4.7l1.5,3l2,4.1l1.7,3.5l0.5,0l3.8-2.1l3.8-2.1l-0.5,9l-0.6,9l-0.1,1.9l-0.2,0.6l-0.6,0.2l-0.1,0.5l-0.1,7
	l-0.1,6.9l0.1,0.4l0.2,0.2h3.2h2.9l2.9,0h3.2l0.2,0l0.2,0h0.2l0.1,0.1l0.5,4.5l0.5,4.5l0.8,4.4l0.9,4.4l1.1,5.3l1.1,5.2l0.6,0.7
	l0.6,0.7L286.3,161z"/>
<path class="st1" d="M243.3,219.8l-1.2,1l-2.7,2.7l-0.3,0.3l-0.3,0.1l-0.3,0l-0.3,0l-0.2,0.1l-0.2,0.1l-2,2.2l-0.2,0.4l-0.2,0.3
	l0,0.2v0.2l0,0.2l0,0.1l0.1,0.3l0.2,0.3l0.8,1.1l0.1,0.1l0.1,0.1v0.2l0,0.3l-0.1,0.1l-0.1,0.1l-4.4,1.6l-1.4,0.5l-3.7,1.5l-1.2,0.8
	l-2.4,2.7l-0.4,0.4l-0.8-1.1l-0.6-0.4l-0.8,0.1l-2.1,1l-0.7,0.2l-0.8-0.2l-0.8-0.4L212,234l-3.7-2.7l-3-2.1l-1.6-1.7l-2.8-4
	l-1.7-1.6l-3.7-2.6l-8.8-6.3l-4.3-3.1l-3.6-2.6l-3.1-2.2l-1.6-1.6l-0.3-0.2L172,201l-0.3-0.9l-0.5-2l-0.1-0.8l0.1-0.7l0.2-0.6
	l0.1-0.6l-0.1-0.7l-0.8-1.8l-0.1-0.7v-0.9l-0.1-0.7l-0.2-0.6l-0.7-1.4l-0.2-0.6l-0.1-1.5l-0.2-0.3l-2.2-1.3l-1.3-0.4L165,184
	l-0.1-0.2l5.5-6.9l1.4-3l-0.3-1.2l-0.9-1.3l-4.3-4.9l6-2.9v-0.5l-7.5-10.5l9.4-3.6l2.2,0l0.8,2l0.7,1.1l4.4,5.3l3.6,6.4l0.6,0.4
	l2.3,0.5l3.5,1.4l4.1,2.3l8,4.9l0.6,1.1l1,1l0,0.7l3.2-1.1l1.9-2.8l1.6-3.3l0.5-0.7l0.5-0.5l0.5-0.2l0.5,0.1l0.5,0.5l0.5,0.8
	l0.1,1.2l0,2.3l0.4,0.8l1.1,0.4l7.2,0.9l0.6-0.6l0.8-3.1l0.5-0.3l0.9-0.4l3.5-0.1l1.1-0.2l0.9-0.4l0.8-1.2l0.3,0l0.2,0.8l0.6,3.6
	l0.2,0.9l0.4,1.1l0.9,0.7l0.9,0.5l2.7,0.6l8,0.5l1.3-0.4l-0.6,2.2l-0.1,0.9l0,0.9v0.9l0,0.7l0.1,0.4l0,0.4l-0.4,0l-1.4-0.3l-0.3,0
	l-0.2,0.1l-0.2,0.2l-0.3,0.5l0,0.4l-0.7,2.2l-0.6,0.7l-0.5,0.5l-0.6,1.9l-0.3,0.6l-3.1,0l-0.6-0.2l-0.6-0.4l-0.5-0.5l-0.5-0.1h-0.6
	l-0.9,0.1l-0.5,0.3l-0.2,0.3l-0.1,0.3l0,0.4v0.3l0.1,0.7l0.7,0.7l-0.5,1.3l-0.2,0.2l-0.1,0v0.1l0,0.1l0.3,0.5l0.8,0.8l0.4,0.5
	l0.1,0.2l0,0.1l-0.8,0.1l-0.2,0l-0.2,0.1l-0.2,0.1l-0.3,0l-0.4,0.3l-1.3,2.6l-0.4,0.5l-0.5,0.5l-0.5,0.4l-1.6,0.7l-0.2,0.5l-0.2,0.2
	l-0.1,0.1l-0.9,1.1l-0.5,1l-0.4,0.9l0.4,0.9l1.9,2.7l0.8,0.5l1.2,0.7l0,0.2l0.1,0.3l0.1,0.3l0.4,0.2h0.5l1.1-0.5l0.4,0l0.2,0.4
	l3.2,1.5l0.5,0.8l0.2,0.8v0.6l0.1,0.7l0.2,0.7l0.5,0.3l0.6,0.2l0.4,0.2l0.5,0.5l0.4,0.5l0.1,0.2l0.1,0.4l0.3,0.9l0,0.2L243.3,219.8z
	"/>
<path class="st1" d="M166.3,166.5l4.3,4.9l0.9,1.3l0.3,1.2l-1.4,3l-5.5,6.9l0,0l-0.2-0.8l-0.1-0.3l-1-1.3l-0.4-0.7l-0.5-2.1
	l-0.3-0.5l-0.9-1l-0.3-0.5l-0.2-0.7l-0.3-1.6l-0.9-3l-0.3-0.7l0.2-0.3l-0.1-0.5l0-2.5l-0.1-0.7l-0.2-0.6l-2-3.3l-0.5-0.5l-5.9-4.4
	l-2.3-1l-2.6-0.7l-1-0.1l-0.6,0.3l-0.4,0.7l-0.3,1.2l-0.6,0.4l-0.5,1.1l-0.8,0.8l-0.9,0.5l-1,0l-1.1-0.5l-2.7-2h-0.5l-1.6,0.3
	l-0.1-0.3l-0.1-0.3l-0.1-0.1l-0.5,0.9l-0.2,0.2l-0.2,0.2l-1.3-1.3l-1.8-0.5l-5.3,0.3l-3.2,1.1h-1.6l-0.9-0.2l-0.7-0.5l-1.5-1.5
	l-1.6-1.2l-2.6-1.3l-2.9-1.5l-0.7-0.7l-0.2-0.8l0.3-2.9l0.2-0.6l0.3-0.5l0.5-0.4l1.1-0.5l0.4-0.4l-0.2-0.7l-1.8-2.5l-0.8-1.6
	l-0.3-1.3l0.7-1l0.7-0.5l0.8-0.1l1,0.3l0.9,0.6l0.5,0.2l0.4,0l0.3-0.5l0-0.5l-0.2-0.5l-0.3-0.4l-0.4-0.3l-1.3-0.8l-0.4-0.4l-0.3-0.5
	l0.3-0.3l0.3-0.8l0-0.4l-0.3-0.6l-0.1-0.1l0-0.2l0.1-0.1l0.2-0.1l0.4-0.1l0.7,0l0.5-0.2l1.4-1l0.5-0.5l0.1-0.1l0.5,0l0.5,0.4
	l0.3,0.2l1.3,0.3l1.3,0.1l0.4,0.3l0.1,0.7v1.6l0.2,0.6l0.7,1.1l0.3,0.9l0.7,1.3l0.4,0.5l0.5,0.3l0.6,0.1h1.2l0.5,0.3l0.3,0.6
	l0.5,1.4l0.7,1.2l0.9,1l6.3,5.7l0.7,0.1l0.4,0.1l0.3,0.2l1,1.1l0.8,0.8l0.6,0.2l1.6,0.3l0.5,0.3l1.4,1.6l0.3,0.5l0.3,1.1l0.4,0.2
	l0.2,0.1l0.6,0.2l0.7,0l0.5-0.4l1.1-2.1l0.5-0.5l0.4-0.3l0.5-0.2l0.5-0.1h1.4l5.1,1.2l1.3,0.5l1.2,0.7l1.6,1.2l4.5,5l3.2,5.1
	l0.1,0.1l0.4,0.2l0.4,0.1L166.3,166.5z"/>
<path class="st1" d="M282.6,184.1l0.2,0.2l3.3,0.1l1.1,0.3l0.4,0.1l0.5,0.1l0.6,0l0.7-0.1l0.2,0l0.1,0.1l0.1,0.2l0.2,0.5l0.1,0.3
	l0,0.4l0,0.5l-0.1,0.5l-0.2,0.5l0,0.2l0,0.2v0.2l0,1.6l0,0.6l0.4,1.8l0.1,0.1l0.1,0.2l0.2,0.2l0.5,0.2l0.1,0.1l0.1,0.1v0.3l-0.1,0.2
	v0.3l0.1,0.3l0.7,0.9l0,0.8l-0.1,0.3l-0.1,0.1l-0.1,0.1l-0.5,0.1l-0.1,0.1l0,0.2l0,0.2l0.1,1.6l0.1,0.2l0.1,0.1l0.3,0.1h0.2l0.2,0
	l0.1,0l0.5-0.2l0.1,0h0.2h0.2l0.2,0.1l0.1,0.2l0,0.5l-0.1,0.2v0.3l0,0.2l0.9,1l0.4-0.1h0.1l0.1,0l0.3,0.5l2.1,0.6l0.3,0l0.4,0l0.2,0
	h0.2l0.5,0.3l0.2,0.1l0.2,0l0.3-0.1l0.6,0l4.6,0.9l0.5,0.7l0.7,3.2l-0.1,0.3l-0.4,0.1h-0.2l-0.7,0.2l-0.5,0.2l-0.9,0.5l-0.4,0.3
	l-0.2,0.2l0,0.2l-0.1,0.2v0.5v0.3l0,0.2l0,0.2l0,0.3v0.2v0.4l0,0.2l-0.1,0.2l-0.2,0.1l-0.2,0h-0.8l-0.3,0.1l-0.2,0.3l-0.1,0.3l0,2.4
	l0.3,0.6l0.4,0.5l1.1,1l2,1.8l-0.2,0.3l-0.3,1.3l-0.2,1.4l0,1.3l-0.3,1.1l-0.2,1.1l-0.2,0.1l-0.3-0.1l-0.3,0.1l0,0l-6.4-1.6
	l-1.4-0.1v0.2l0,0.4v0.1v0.2l-0.1,0.2l-0.1,0.1l-0.1,0.1l-0.1,0l-0.3,0.1l-2.9,0.1l-0.4,0l-0.2-0.1l-0.2-0.1l-0.2-0.1l-0.1-0.2
	l0-0.3l0-0.5l0.2-0.9l-0.1-0.5l-0.5-1l-0.5-0.1l-2.3-0.5l-2.1-0.3h-0.4l-0.5,0.1l-0.4,0.2l-0.2,0.2l-0.2,0.2l-0.9,1.3l-0.2,0.2
	l-2,0.8h-0.2l-0.4-0.1l-0.4-0.2l-1.6-1.2l-0.6-0.5l-0.5,0l-3.8,0.9l-0.1,0l-2.6,1.2l-0.5,0.4l-0.4,0.1h-1l-1.8-0.5l-0.1-0.1
	l-0.1-0.2l0-0.4l0-0.3v-0.2l0-0.5v-0.5l-0.1-0.2l-0.1-0.2l-0.6-0.5l-0.8-0.5l-1.4-1.4l-0.3-0.4l-0.2-0.3l0-0.2l-0.3-1.1l0-0.1
	l-0.1-0.1l-0.1-0.1l-0.1-0.1l-0.2,0l-0.2,0H260l-0.3,0l-0.2,0.1l0,0.2v0.2v0.5v0.2l0,0.2l-0.1,0.1l-0.1,0.1l-0.6,0.4l-0.5,0.3
	l-0.3,0.1l-11.3-0.3l-1.4-2.8l-0.3-1.1v-0.2l0.8-1.8l0.1-0.3l0-0.3l0-0.5l0-0.3l-0.8-2.9l-0.2-0.3l-0.2-0.2l-0.5-0.5l-0.8-0.9
	l-0.2-0.4l0-0.2l0.1-0.1l0.1-0.1l0.3,0l1.3-0.2l1.6-0.4l0.2-0.2l0.2-0.2l0.1-0.6l0-0.2l0.1-0.2l0.2-0.1l0.2,0l0.9,0.5l0.8,0.4
	l0.7,0.1h0.8l0.3-0.1l0.2-0.1l0.2-0.4l0.5-1.8l0.1-0.2l0.4-0.9l0.1-0.3l0-0.2l0-0.2l-0.1-0.1l-0.1-0.1l-0.2,0h-0.2l-0.1-0.1l0-0.2
	l0.7-1l0-0.2l0.1-0.1l0-0.2v-0.2l0.1-0.7l0-0.5l0-0.1l0.1-0.2l0.1-0.4l0.1-0.1l0.2-0.1h0.4l2.4,1.1l0.5,0.1l0.1,0l0.3,0l0.7,1
	l0.4,0.5l1.1,0.4l0.5,0.4l0.5,0.3l0.5-0.2l1.1,0.7l1.1,0.2l5.7-1.2l0.3-0.2l1.7-1.6l0.3-0.3l0.1-0.3v-0.3l-0.1-0.2l-0.1-0.2
	l-0.2-0.1l-0.2,0h-0.2l-0.5,0.1h-0.2l-0.1,0l0-0.2l0-0.2l0.7-1.6l0.2-0.8l0.1-0.5l0.2-0.5l0.7-1l0.1-0.2v-0.3l-0.4-0.4l-0.1-0.2
	l0-0.2l0-0.2l0.4-0.8l0.2-0.8l-0.1-1.2l-0.3-0.8v-0.3l0.1-0.2l0.5-0.2l0.2-0.2l0.2-0.4l0-0.3l-0.1-0.3l-0.2-0.3l-0.2-0.6v-0.5
	l0.1-0.5l0.3-1l0.2-0.5l0.2-0.4l0.3-0.3l0.3-0.3l0.4-0.1l0.4,0l0.4,0.2l0.5,0.4l0.5,0.3l0.5,0.2l0.4,0.1l0.5-0.1l0.6-0.3l1.9-1.3
	l0.3-0.1l0.2,0l0.3,0.1l0.8,0.7l0.9,1.1l0,0.1l0,0.1v0.3l-0.2,0.5v0.2l0,0.1l0,0.1l0.1,0.1l0.3,0.4L282.6,184.1z"/>
<path class="st1" d="M431.5,185.4l0-0.2l-0.2-0.8l0-0.5l0.1-0.6l0.1-0.6v-0.4V182l0-0.2l-0.4-0.3l-1.4-0.4l-0.3,0l-0.2-0.1l-0.5-0.8
	l-0.4-0.3l-0.3,0.2l-0.3,0.4l-0.5,0l-1.6-0.3l-1.3-0.4l-0.7,0l-0.5,0.1l-0.6-0.1l-0.2-0.1l-0.2-0.1l-1.1-1.5l-0.2-0.4l-0.2-0.2
	l-0.3-0.2l-1.4-0.5l-0.4,0l-0.3,0l-0.1,0.1l-0.2,0l-0.4-0.1l-0.7-0.4h-0.3l-0.1,0.1l0,0.6l-0.1,0l-0.3-0.4l-0.5-1.1l-0.8-1.2
	l0.8-0.8l-0.4-0.9l-0.3-0.4l0-0.3l0.1-0.2l0.9-0.8l0.3-0.2l0.4-0.5l2.7-0.7l0.9,0.4l1.1-0.5l0.3-0.1h0.6l0.6,0l0.7-0.1l3.5,0.9
	l0.5,0l0.5-0.1l1.6,0l0.4-0.1l0.2-0.1l0.1,0l0.2-0.2l0.6-2.9l0.1-0.6l1.5-0.5l1-0.1l0.2-0.2l0.3-0.9l0.1-0.2l0.5-0.4l0.3,0.2
	l0.8,1.2l0.5,0.4l0.8,0.2l1.4,0.1l0.1,0.1l0,0.1v0.2l0,0.2v0.8l0.5,0.2l0.6,0l0.5,0.2l1.1,1.8l0.8,0.9l1.1,0.5l1.1,0.1l3.4-0.3
	l1,0.3l0.1,1l-0.1,0.6l0.4,0l1.2-0.9l2-0.9l0.4,0.3l0.4,0.5l0.5,0.4l1.6-0.1l0.8,0.2l0.1,0.7l-0.8,1.1l-1.2,0.7l-2.5,0.9l-2.3,1.4
	l-1.9,0.5l-0.9,0.4l-0.6,1l-0.3,2.3l-0.8,0.4l-1-0.5h-0.5l-0.2,0.6l0,0.5l-0.1,0.5l-0.2,0.4l-0.4,0.4l-1.1,0l-1.9-1.3l-1-0.1
	l-0.8-0.4l-0.9-1l-0.9-0.8l-0.8,0.4l-0.1,0.5l0.6,1l0,0.6l-0.1,0.6v0.4l0.2,0.3l1.1,0.8l0.3,0.7v0.8l-0.3,0.9l-0.5,0.7l-0.6,0.1
	l-0.7-0.3l-1.6-0.9l-0.4-0.1l-1.2,0l-0.4-0.1l0.1-0.3l0.3-0.1l0.5,0l0.4-0.1l0.1-0.4l-0.3-0.2l-0.5,0L431.5,185.4z"/>
<desc>Created with Raphaël 2.1.0</desc>
</svg>
